<svg width="112" height="38" fill="none" xmlns="http://www.w3.org/2000/svg"><g clip-path="url(#a)"><path d="M5.616 16.585c-1.875 0-3.264-.625-4.375-1.806C-.356 13.085-.176 10.835-.05 8.418S.13 3.75 1.908 2.057C3.144.89 4.602.25 6.478.25c3.04 0 5.416 1.695 5.819 5.236H8.283C8.088 4.585 7.63 3.78 6.324 3.78c-.722 0-1.277.292-1.597.68-.389.473-.666 1.042-.82 3.973-.152 2.93.07 3.5.404 3.972.277.389.805.68 1.527.68 1.306 0 1.848-.805 2.14-1.708h4.013c-.778 3.542-3.32 5.236-6.361 5.236m17.736-.152.64-12.14H20.31l-.375 7.265c-.07 1.402-1.084 1.666-1.57 1.666s-1.472-.264-1.402-1.666l.375-7.264h-3.695l-.403 7.764c-.07 1.291.056 2.43 1.042 3.472.625.653 1.528 1.042 2.68 1.042.973 0 2.098-.39 2.875-1.126l-.055.987h3.611-.028Zm11.82-11.153c-.792-.834-1.584-1.125-2.778-1.125-1.264 0-2.361.583-2.93 1.125l.055-.986h-3.611l-.639 12.139h3.694l.375-7.264c.07-1.375 1.084-1.667 1.584-1.667.625 0 .958.264 1.305.625l2.945-2.847Zm9.847 0c-.791-.834-1.583-1.125-2.778-1.125-1.264 0-2.36.583-2.93 1.125l.055-.986h-3.61l-.64 12.139h3.695l.375-7.264c.07-1.375 1.083-1.667 1.583-1.667.639 0 .959.264 1.306.625l2.944-2.847Zm3.625 11.153.611-11.667h-3.694l-.611 11.667h3.694Zm.709-13.39.152-2.819h-3.694l-.153 2.82h3.695Zm6.11 13.515c1.695 0 3.029-.57 4.07-1.556l-2.375-2.5c-.5.472-.916.722-1.528.722-.5 0-.833-.152-1.125-.472-.402-.444-.541-1.236-.486-2.389.056-1.153.278-1.944.736-2.389.334-.32.68-.472 1.18-.472.612 0 1.001.25 1.445.722l2.64-2.5c-.945-.986-2.223-1.555-3.917-1.555-2.098 0-5.514.902-5.792 6.208-.278 5.306 3.042 6.208 5.139 6.208m15.194-.152.64-12.14h-3.695l-.375 7.265c-.07 1.402-1.084 1.666-1.57 1.666s-1.472-.264-1.402-1.666l.375-7.264h-3.695l-.403 7.764c-.07 1.291.056 2.43 1.042 3.472.625.653 1.528 1.042 2.68 1.042.973 0 2.098-.39 2.876-1.126l-.056.987h3.611-.028Zm7.542 0 .167-3.112h-1.292c-.5 0-.736-.263-.708-.75L77.006.39H73.31l-.653 12.486c-.083 1.667.89 3.584 3.584 3.584H78.2Zm11.459 0 .638-12.14h-3.694l-.375 7.265c-.07 1.402-1.083 1.666-1.57 1.666-.486 0-1.472-.264-1.402-1.666l.375-7.264h-3.695l-.403 7.764c-.069 1.291.056 2.43 1.042 3.472.625.653 1.528 1.042 2.68 1.042.973 0 2.098-.39 2.876-1.126l-.056.987h3.611-.027Zm18.986 0 .403-7.764c.069-1.292-.167-2.43-1.153-3.473-.625-.652-1.708-1.041-2.861-1.041-1.403 0-2.389.36-3.5 1.291-.736-.902-1.695-1.291-2.89-1.291-.971 0-2.096.389-2.874 1.125l.055-.986h-3.61l-.64 12.139h3.695l.375-7.264c.07-1.403 1.083-1.667 1.583-1.667s1.472.264 1.403 1.667l-.375 7.264h3.694l.375-7.264c.07-1.403 1.084-1.667 1.584-1.667s1.472.264 1.403 1.667l-.375 7.264H108.645ZM14.658 37.5l-5-16.07H6.616l-6.68 16.07H4.06l.916-2.388h4.945l.625 2.389h4.125-.014Zm-5.611-5.68H6.255l1.667-4.292 1.125 4.292Zm10.68 5.82c2.82 0 5.32-1.237 5.473-4.112.097-1.944-.93-3.458-3.459-3.694l-1.86-.18c-.834-.084-.765-.542-.75-.681.013-.264.332-.695 1.235-.695.945 0 1.959.111 2.528.722l2.403-2.277c-1.139-1.195-2.722-1.486-4.709-1.486-2.416 0-4.902 1.333-5.041 4.013-.125 2.375 1.25 3.32 3.333 3.514l1.861.18c.723.07.861.431.834.765-.028.625-1.084.791-1.625.791-.625 0-1.945 0-2.903-1.013l-2.514 2.389c1.583 1.666 3.361 1.763 5.194 1.763Zm10.792 0c2.82 0 5.32-1.237 5.472-4.112.098-1.944-.93-3.458-3.458-3.694l-1.861-.18c-.833-.084-.764-.542-.75-.681.014-.264.333-.695 1.236-.695.944 0 1.958.111 2.528.722l2.403-2.277c-1.14-1.195-2.723-1.486-4.709-1.486-2.416 0-4.903 1.333-5.041 4.013-.125 2.375 1.25 3.32 3.333 3.514l1.861.18c.722.07.861.431.833.765-.027.625-1.083.791-1.625.791-.625 0-1.944 0-2.902-1.013l-2.514 2.389c1.583 1.666 3.36 1.763 5.18 1.763m15.64-1.555c1.069-1.111 1.444-2.25 1.569-4.653.125-2.375-.125-3.542-1.084-4.653-.68-.764-1.86-1.555-3.82-1.555-1.957 0-3.221.791-3.985 1.555-1.07 1.111-1.445 2.278-1.57 4.653-.125 2.389.125 3.542 1.084 4.653.68.764 1.86 1.555 3.82 1.555 1.958 0 3.221-.791 3.985-1.555Zm-2.529-7.18c.445.471.473 1.333.403 2.527-.07 1.195-.18 2.056-.68 2.528-.236.222-.556.333-1.014.333-.459 0-.764-.111-.972-.333-.445-.472-.473-1.334-.403-2.528.07-1.194.18-2.056.68-2.528.236-.222.556-.333 1.014-.333.459 0 .764.111.973.333Zm10.64 8.735c1.694 0 3.027-.569 4.069-1.555l-2.375-2.5c-.5.472-.917.722-1.528.722-.5 0-.833-.153-1.125-.472-.403-.445-.541-1.236-.486-2.39.056-1.152.278-1.944.736-2.388.334-.32.68-.472 1.18-.472.612 0 1 .25 1.445.722l2.64-2.5c-.945-.986-2.223-1.556-3.918-1.556-2.097 0-5.514.903-5.791 6.209-.278 5.305 3.041 6.208 5.139 6.208m9.097-.166.611-11.667h-3.695l-.61 11.666h3.694Zm.694-13.376.153-2.82h-3.694l-.153 2.82h3.694Zm11.153 13.375.417-7.874c.153-2.959-1.639-4.403-5.111-4.403-2.056 0-3.209.389-4.514 1.625l2.18 2.305c.611-.583 1.042-.805 1.986-.805 1.292 0 1.806.402 1.75 1.514v.319h-2.472c-2.889 0-4.222 1.695-4.32 3.514-.055 1.125.25 2.139.917 2.847.64.68 1.64 1.084 2.848 1.084 1.291 0 1.986-.362 2.764-1.112l-.056 1h3.611v-.014Zm-3.472-4.555c-.028.583-.139.972-.43 1.222-.431.389-.765.445-1.487.445-.805 0-1.194-.473-1.166-1.014.027-.57.5-.972 1.222-.972h1.875v.319h-.014Zm11.5 4.556.167-3.112h-1.167c-.5 0-.736-.264-.708-.75l.264-4.958h1.916l.153-2.847h-1.917l.181-3.473h-3.694l-.181 3.473h-1.111l-.153 2.847h1.111l-.278 5.236c-.083 1.667.89 3.584 3.584 3.584h1.847-.014Zm12.417-4.876.083-1.652c.167-3.18-1.639-5.75-5.153-5.75-3.18 0-5.555 2.236-5.764 6.208-.277 5.236 2.764 6.208 5.445 6.208 2.264 0 3.514-.68 4.82-1.916l-2.098-2.209c-.694.653-1.278 1.014-2.555 1.014-1.375 0-2.098-.903-2.042-1.903h7.264Zm-3.68-3.402c.138.32.166.652.152.944h-3.611c.014-.291.083-.625.25-.944.25-.514.778-.945 1.653-.945s1.347.43 1.555.945Zm9.347 8.416c2.819 0 5.319-1.236 5.472-4.11.097-1.945-.931-3.46-3.458-3.695l-1.862-.18c-.833-.084-.764-.542-.75-.681.014-.264.334-.695 1.237-.695.944 0 1.958.111 2.527.722l2.403-2.277c-1.139-1.195-2.722-1.486-4.708-1.486-2.417 0-4.903 1.333-5.042 4.013-.125 2.375 1.25 3.32 3.333 3.514l1.862.18c.722.07.861.431.833.765-.028.625-1.083.791-1.625.791-.625 0-1.945 0-2.903-1.013l-2.514 2.389c1.584 1.666 3.361 1.763 5.195 1.763Zm8.194-8.305c1.056 0 1.958-.861 2.014-1.903a1.795 1.795 0 0 0-1.806-1.917c-1.055 0-1.958.861-2.013 1.917a1.784 1.784 0 0 0 1.805 1.903Zm.181-3.598a1.57 1.57 0 0 1 1.569 1.681c-.042.917-.833 1.68-1.75 1.68a1.569 1.569 0 0 1-1.569-1.68c.041-.917.833-1.68 1.75-1.68Zm.639 2.737-.487-.903c.278-.084.5-.278.514-.597.014-.361-.277-.625-.625-.625h-.68l-.111 2.11h.236l.041-.874h.348l.472.875h.278l.014.014Zm-.625-1.89c.25 0 .43.181.416.404 0 .236-.208.402-.458.402h-.417l.042-.805h.417Z" fill="#00528D"/></g><defs><clipPath id="a"><path fill="#fff" transform="translate(0 .159)" d="M0 0h112v37.682H0z"/></clipPath></defs></svg>
