<svg width="10" height="10" viewBox="0 0 10 10" fill="none" xmlns="http://www.w3.org/2000/svg">
<path d="M1.94037 0.747129C1.61087 0.417624 1.07663 0.417624 0.747129 0.747129C0.417624 1.07663 0.417624 1.61087 0.747129 1.94037L3.80676 5L0.747129 8.05963C0.417624 8.38913 0.417624 8.92337 0.747129 9.25287C1.07663 9.58238 1.61087 9.58238 1.94037 9.25287L5 6.19324L8.05963 9.25287C8.38913 9.58238 8.92337 9.58238 9.25287 9.25287C9.58238 8.92337 9.58238 8.38913 9.25287 8.05963L6.19324 5L9.25287 1.94037C9.58238 1.61087 9.58238 1.07663 9.25287 0.747129C8.92337 0.417624 8.38913 0.417624 8.05963 0.747129L5 3.80676L1.94037 0.747129Z" fill="#68388A"/>
</svg>
