<svg width="20" height="14" viewBox="0 0 20 14" fill="none" xmlns="http://www.w3.org/2000/svg">
<path fill-rule="evenodd" clip-rule="evenodd" d="M0 1.5C0 1.08579 0.407014 0.75 0.909091 0.75H19.0909C19.593 0.75 20 1.08579 20 1.5C20 1.91421 19.593 2.25 19.0909 2.25H0.909091C0.407014 2.25 0 1.91421 0 1.5Z" fill="black"/>
<path fill-rule="evenodd" clip-rule="evenodd" d="M0 7C0 6.58579 0.407014 6.25 0.909091 6.25H19.0909C19.593 6.25 20 6.58579 20 7C20 7.41421 19.593 7.75 19.0909 7.75H0.909091C0.407014 7.75 0 7.41421 0 7Z" fill="black"/>
<path fill-rule="evenodd" clip-rule="evenodd" d="M0 12.5C0 12.0858 0.407014 11.75 0.909091 11.75H19.0909C19.593 11.75 20 12.0858 20 12.5C20 12.9142 19.593 13.25 19.0909 13.25H0.909091C0.407014 13.25 0 12.9142 0 12.5Z" fill="black"/>
</svg>
