<svg width="108" height="24" fill="none" xmlns="http://www.w3.org/2000/svg"><g clip-path="url(#a)"><path d="M55.022 8.211c1.612 0 3.403 1.203 3.744 3.036a.155.155 0 0 1-.153.18h-7.18a.155.155 0 0 1-.153-.18c.34-1.833 2.132-3.036 3.744-3.036h-.002Zm-.023 11.008c1.813 0 4.265-.83 5.583-3.19.151-.27.138-.645-.266-.645h-1.927c-.346 0-.52.078-.706.253-.607.57-1.477 1.004-2.594 1.004-1.42 0-3.061-.858-3.726-2.761a.155.155 0 0 1 .145-.209h8.715c.864 0 1.357-.247 1.357-1.414 0-3.653-2.954-6.622-6.535-6.622-3.582 0-6.58 2.98-6.58 6.781 0 3.802 2.933 6.805 6.535 6.805l-.002-.002Z" fill="#fff"/><path d="M9.813 11.183c0-.175.093-.337.243-.426l7.834-4.554a.484.484 0 0 1 .487 0 .49.49 0 0 1 .244.426v9.107a.496.496 0 0 1-.244.426l-7.833 4.553a.484.484 0 0 1-.488 0 .49.49 0 0 1-.243-.426v-9.106Z" fill="#20BEC6"/><path d="M.244 16.16A.491.491 0 0 1 0 15.734V6.627c0-.175.093-.336.244-.426a.484.484 0 0 1 .487 0l7.833 4.554c.151.087.244.249.244.426v9.106a.496.496 0 0 1-.244.426.484.484 0 0 1-.487 0L.244 16.16Z" fill="#88C540"/><path d="M1.233 5.47a.49.49 0 0 1 0-.85L9.069.065a.484.484 0 0 1 .487 0l7.834 4.555a.491.491 0 0 1 0 .85l-7.836 4.554a.485.485 0 0 1-.487 0L1.233 5.47Z" fill="#F47524"/><path d="M88.41 2.232v4.732a.096.096 0 0 1-.161.07c-.975-.883-2.397-1.412-3.878-1.412-4.331 0-6.67 3.53-6.67 6.849 0 3.32 2.337 6.736 6.67 6.736 1.668 0 3.104-.578 4.115-1.642a.058.058 0 0 1 .103.041v.806c0 .276.222.498.495.498h1.592a.496.496 0 0 0 .495-.498V2.232a.496.496 0 0 0-.495-.498h-1.772a.496.496 0 0 0-.495.498h.002Zm-3.927 14.397c-1.932 0-4.018-1.597-4.018-4.18 0-1.762 1.253-4.247 4.04-4.247 2.367 0 4.084 1.786 4.084 4.248 0 2.303-1.842 4.18-4.108 4.18h.002ZM73.509 7.095c0 .089-.106.13-.168.066-.94-.987-2.31-1.538-3.872-1.538-4.418 0-6.803 3.53-6.803 6.85 0 1.724.65 3.415 1.78 4.643 1.264 1.37 3 2.093 5.023 2.093 1.618 0 3.012-.613 3.936-1.704.036-.043.106-.02.106.037v.871c0 .277.222.499.495.499h1.772a.496.496 0 0 0 .495-.498V6.46a.496.496 0 0 0-.495-.498h-1.772a.496.496 0 0 0-.495.498v.635h-.002Zm.044 5.355c0 2.303-1.842 4.18-4.107 4.18-1.933 0-4.018-1.598-4.018-4.18 0-1.763 1.252-4.248 4.04-4.248 2.367 0 4.083 1.786 4.083 4.248h.002ZM95.796 24h1.916a.498.498 0 0 0 .46-.311l6.935-17.042a.498.498 0 0 0-.46-.687h-1.781a.69.69 0 0 0-.641.434l-3.392 8.396c-.035.088-.16.086-.194-.002l-3.154-8.376a.693.693 0 0 0-.647-.45h-1.842a.448.448 0 0 0-.412.617l4.639 11.476a.972.972 0 0 1 0 .722l-1.887 4.538a.498.498 0 0 0 .458.687l.002-.002ZM107.006 6.087a.87.87 0 0 1 .868.873.87.87 0 0 1-.868.874.87.87 0 0 1-.867-.874.87.87 0 0 1 .867-.873Zm0-.127a.996.996 0 0 0-.993 1c0 .553.444 1 .993 1a.997.997 0 0 0 .994-1c0-.552-.445-1-.994-1Z" fill="#fff"/><path d="M107.173 7.019s0-.01.003-.01a.226.226 0 0 0 .157-.226c0-.151-.106-.253-.267-.253h-.317a.026.026 0 0 0-.025.026v.807c0 .014.012.025.025.025h.089a.025.025 0 0 0 .025-.025v-.319s.006-.014.014-.014h.139s.012.004.015.01l.167.335s.013.013.021.013h.104c.02 0 .031-.019.022-.037l-.172-.332Zm-.31-.352s.004-.01.01-.01h.186c.085 0 .137.048.137.128s-.052.127-.137.127h-.186s-.01-.004-.01-.01V6.667ZM25.778 6.809H23.4a.194.194 0 0 0-.194.194v11.703c0 .107.087.194.194.194h2.377a.194.194 0 0 0 .193-.194V7.003a.194.194 0 0 0-.193-.194ZM33.697 9.358h-5.942a.341.341 0 0 0-.34.342v1.716c0 .19.152.343.34.343h5.942c.188 0 .34-.154.34-.343V9.7a.341.341 0 0 0-.34-.342ZM44.435 11.516a.146.146 0 0 1 .085-.207c1.976-.665 3.145-2.33 3.145-4.512 0-3.024-2.141-5.057-5.33-5.057h-6.36a.496.496 0 0 0-.494.498v16.16c0 .276.222.498.494.498h1.773a.496.496 0 0 0 .495-.498v-6.386c0-.142.114-.257.255-.257h2.789c.124 0 .238.07.292.18l3.318 6.685c.084.17.256.276.443.276h2.093c.371 0 .611-.397.439-.73l-3.44-6.654.003.004Zm-6.19-7.052c0-.113.09-.204.203-.204h3.699c1.7 0 2.756.98 2.756 2.56s-1.055 2.538-2.756 2.538h-3.7a.204.204 0 0 1-.202-.205V4.462v.002ZM24.59 5.013c.897 0 1.625-.733 1.625-1.637s-.728-1.636-1.626-1.636c-.897 0-1.625.732-1.625 1.636 0 .904.728 1.637 1.625 1.637Z" fill="#fff"/></g><defs><clipPath id="a"><path fill="#fff" d="M0 0h108v24H0z"/></clipPath></defs></svg>
