<svg width="17" height="18" viewBox="0 0 17 18" fill="none" xmlns="http://www.w3.org/2000/svg">
<path d="M9.34999 9.68597C9.34999 9.53428 9.43057 9.39439 9.56151 9.31686L16.3654 5.37286C16.4963 5.29701 16.6575 5.29701 16.7884 5.37286C16.9194 5.44871 16.9999 5.5886 16.9999 5.74198V13.63C16.9999 13.7817 16.9194 13.9216 16.7884 13.9991L9.98455 17.9431C9.85361 18.0189 9.69245 18.0189 9.56151 17.9431C9.43057 17.8672 9.34999 17.7273 9.34999 17.574V9.68597Z" fill="#17BFC7"/>
<path d="M1.03867 13.9974C0.907727 13.9216 0.827148 13.7817 0.827148 13.6283V5.74031C0.827148 5.58861 0.907727 5.44872 1.03867 5.37119C1.16961 5.29534 1.33077 5.29534 1.46171 5.37119L8.26557 9.31518C8.39651 9.39103 8.47709 9.53092 8.47709 9.6843V17.5723C8.47709 17.724 8.39651 17.8639 8.26557 17.9414C8.13463 18.0173 7.97347 18.0173 7.84253 17.9414L1.03867 13.9974Z" fill="#82D12B"/>
<path d="M1.89826 4.73749C1.76732 4.66164 1.68674 4.52175 1.68674 4.36837C1.68674 4.21499 1.76732 4.07679 1.89826 4.00094L8.7038 0.0569456C8.83474 -0.0189005 8.9959 -0.0189005 9.12684 0.0569456L15.9307 4.00263C16.0616 4.07847 16.1422 4.21837 16.1422 4.37174C16.1422 4.52344 16.0616 4.66333 15.9307 4.73918L9.12516 8.68317C8.99422 8.75902 8.83306 8.75902 8.70212 8.68317L1.89826 4.73749Z" fill="#FF751A"/>
</svg>
