<svg width="122" height="226" viewBox="0 0 122 226" fill="none" xmlns="http://www.w3.org/2000/svg">
<g opacity="0.6">
<path d="M113.04 225.717C111.527 225.717 110.013 225.329 108.662 224.552L25.5849 176.534C22.8828 174.969 21.2065 172.063 21.2065 168.944V72.9082C21.2065 69.7896 22.8828 66.884 25.5849 65.3184C28.2871 63.7529 31.6397 63.7529 34.3418 65.3184L117.419 113.337C120.121 114.902 121.797 117.808 121.797 120.926V216.962C121.797 220.081 120.121 222.987 117.419 224.552C116.068 225.329 114.554 225.717 113.04 225.717ZM29.9634 71.305C29.6881 71.305 29.4129 71.3802 29.1752 71.518C28.6874 71.806 28.3746 72.332 28.3746 72.8956V168.932C28.3746 169.495 28.6749 170.021 29.1627 170.31L112.24 218.328C112.728 218.616 113.341 218.603 113.829 218.328C114.316 218.04 114.629 217.514 114.629 216.95V120.914C114.629 120.35 114.329 119.812 113.829 119.536L30.7515 71.518C30.5013 71.3802 30.2261 71.305 29.9508 71.305H29.9634Z" fill="white"/>
</g>
<g opacity="0.6">
<path d="M8.95945 161.856C7.44577 161.856 5.9321 161.467 4.58104 160.691C1.87894 159.125 0.202637 156.22 0.202637 153.101V57.0649C0.202637 53.9464 1.87894 51.0408 4.56854 49.4752L87.6457 1.45711C90.3478 -0.108425 93.7004 -0.108425 96.4025 1.45711C99.1046 3.01012 100.781 5.92828 100.781 9.04683V105.083C100.781 108.202 99.1046 111.107 96.4025 112.673L13.3379 160.691C11.9868 161.467 10.4731 161.856 8.95945 161.856ZM92.0241 7.44372C91.7489 7.44372 91.4737 7.51887 91.2235 7.65663L8.14632 55.6747C7.65844 55.9628 7.35821 56.4888 7.35821 57.0524V153.089C7.35821 153.652 7.65844 154.178 8.15883 154.466C8.64671 154.754 9.25969 154.754 9.74757 154.466L92.8247 106.448C93.3126 106.16 93.6253 105.634 93.6253 105.071V9.0343C93.6253 8.47071 93.3251 7.94469 92.8247 7.65663C92.5745 7.51887 92.2993 7.44372 92.0241 7.44372Z" fill="white"/>
</g>
<path d="M21.1191 73.5469L21.1567 156.019L106.673 107.262L33.7665 65.1431C33.7665 65.1431 22.1324 60.1835 21.1317 73.5469H21.1191Z" fill="white"/>
</svg>
