<svg width="17" height="16" viewBox="0 0 17 16" fill="none" xmlns="http://www.w3.org/2000/svg">
<path fill-rule="evenodd" clip-rule="evenodd" d="M10.7926 11.0261C9.96292 11.6382 8.93729 12 7.82715 12C5.06572 12 2.82715 9.76142 2.82715 7C2.82715 4.23858 5.06572 2 7.82715 2C10.5886 2 12.8271 4.23858 12.8271 7C12.8271 8.11014 12.4654 9.13578 11.8532 9.96544L14.6075 12.7197C14.9004 13.0126 14.9004 13.4874 14.6075 13.7803C14.3146 14.0732 13.8397 14.0732 13.5468 13.7803L10.7926 11.0261ZM11.3271 7C11.3271 8.933 9.76015 10.5 7.82715 10.5C5.89415 10.5 4.32715 8.933 4.32715 7C4.32715 5.067 5.89415 3.5 7.82715 3.5C9.76015 3.5 11.3271 5.067 11.3271 7Z" fill="#0F172A"/>
</svg>
