<svg width="17" height="19" fill="none" xmlns="http://www.w3.org/2000/svg"><path d="M9.023 10.186a.43.43 0 0 1 .211-.37l6.804-3.943a.422.422 0 0 1 .635.369v7.888a.43.43 0 0 1-.212.369l-6.804 3.944a.421.421 0 0 1-.634-.37v-7.887Z" fill="#17BFC7"/><path d="M.712 14.497a.425.425 0 0 1-.212-.369V6.24a.422.422 0 0 1 .635-.37l6.803 3.945c.131.076.212.216.212.37v7.887c0 .152-.08.292-.212.37a.421.421 0 0 1-.423 0L.712 14.496Z" fill="#82D12B"/><path d="M1.571 5.237a.425.425 0 0 1 0-.736L8.377.557a.422.422 0 0 1 .423 0l6.804 3.946a.425.425 0 0 1 0 .736L8.798 9.183a.422.422 0 0 1-.423 0L1.571 5.237Z" fill="#FF751A"/></svg>
